# xmcd CD database file
#
# Track frame offsets:
#	150
#	11698
#	21854
#	39254
#	47333
#	67669
#	81468
#	96621
#	115745
#	132283
#
# Disc length: 3299 seconds
#
# Revision: 0
# Processed by: cddbd v1.5.2PL0 Copyright (c) Steve Scherf et al.
# Submitted via: CDex 1.51
#
DISCID=780ce10a
DTITLE=Eternal Summer - Correct Behavior
DYEAR=2012
DGENRE=Alternative Rock
TTITLE0=Millions
TTITLE1=Wonder
TTITLE2=You Kill
TTITLE3=I Love You
TTITLE4=It's Easy
TTITLE5=Girls In The City
TTITLE6=Heaven And Hell
TTITLE7=Good As You
TTITLE8=Disapear
TTITLE9=Summerset
EXTD=YEAR: 2012
EXTT0=
EXTT1=
EXTT2=
EXTT3=
EXTT4=
EXTT5=
EXTT6=
EXTT7=
EXTT8=
EXTT9=
PLAYORDER=
